<?xml version="1.0" standalone="no"?><!DOCTYPE svg PUBLIC "-//W3C//DTD SVG 1.1//EN" "http://www.w3.org/Graphics/SVG/1.1/DTD/svg11.dtd"><svg t="1543545287319" class="icon" style="" viewBox="0 0 1024 1024" version="1.1" xmlns="http://www.w3.org/2000/svg" p-id="2951" xmlns:xlink="http://www.w3.org/1999/xlink" width="128" height="128"><defs><style type="text/css"></style></defs><path d="M589.568 512l129.170286-129.170286a54.820571 54.820571 0 1 0-77.568-77.568L512 434.432l-129.170286-129.170286a54.820571 54.820571 0 1 0-77.568 77.568L434.432 512l-129.170286 129.170286a54.820571 54.820571 0 1 0 77.568 77.568L512 589.568l129.170286 129.170286a54.820571 54.820571 0 1 0 77.568-77.568L589.568 512zM512 1024C229.229714 1024 0 794.770286 0 512S229.229714 0 512 0s512 229.229714 512 512-229.229714 512-512 512z" p-id="2952" fill="#aaa"></path></svg>
