<?xml version="1.0" standalone="no"?><!DOCTYPE svg PUBLIC "-//W3C//DTD SVG 1.1//EN" "http://www.w3.org/Graphics/SVG/1.1/DTD/svg11.dtd"><svg t="1543629424045" class="icon" style="" viewBox="0 0 1024 1024" version="1.1" xmlns="http://www.w3.org/2000/svg" p-id="3697" xmlns:xlink="http://www.w3.org/1999/xlink" width="128" height="128"><defs><style type="text/css"></style></defs><path d="M776.2432 268.8l-88.064-88.064a38.4 38.4 0 0 1 54.3232-54.272l153.6 153.6a38.4 38.4 0 0 1-27.136 65.536h-182.0672a189.1328 189.1328 0 0 0-189.1328 189.1328V665.6a38.4 38.4 0 1 1-76.8 0v-130.8672a265.9328 265.9328 0 0 1 265.9328-265.9328h89.344zM960 512a38.4 38.4 0 1 1-76.8 0 38.4 38.4 0 0 1 76.8 0z m-89.4464 96.4096a38.4 38.4 0 1 1 74.1888 19.8656A448 448 0 1 1 512 64a38.4 38.4 0 1 1 0 76.8 371.2 371.2 0 1 0 0 742.4c168.96 0 315.392-113.92 358.5536-274.7904z" p-id="3698" fill="#f44336"></path></svg>